<svg width="59" height="59" viewBox="0 0 59 59" fill="none" xmlns="http://www.w3.org/2000/svg">
<circle cx="29.5" cy="29.5" r="29.5" fill="#68601F"/>
<path d="M29.5 18.25C30.3585 18.25 30.9062 18.6663 30.9062 18.9531C30.9062 19.1396 30.9804 19.3185 31.1122 19.4503C31.244 19.5821 31.4229 19.6562 31.6094 19.6562C31.7958 19.6562 31.9747 19.5821 32.1066 19.4503C32.2384 19.3185 32.3125 19.1396 32.3125 18.9531C32.3125 17.954 31.4273 17.1454 30.2031 16.9141V16.1406C30.2031 15.9542 30.129 15.7753 29.9972 15.6434C29.8653 15.5116 29.6865 15.4375 29.5 15.4375C29.3135 15.4375 29.1347 15.5116 29.0028 15.6434C28.871 15.7753 28.7969 15.9542 28.7969 16.1406V16.9141C27.5727 17.144 26.6875 17.9526 26.6875 18.9531C26.6875 20.1358 27.9229 21.0625 29.5 21.0625C30.3585 21.0625 30.9062 21.4788 30.9062 21.7656C30.9062 22.0525 30.3585 22.4688 29.5 22.4688C28.6415 22.4688 28.0938 22.0525 28.0938 21.7656C28.0938 21.5792 28.0196 21.4003 27.8878 21.2684C27.756 21.1366 27.5771 21.0625 27.3906 21.0625C27.2042 21.0625 27.0253 21.1366 26.8934 21.2684C26.7616 21.4003 26.6875 21.5792 26.6875 21.7656C26.6875 22.7648 27.5727 23.5734 28.7969 23.8047V24.5781C28.7969 24.7646 28.871 24.9435 29.0028 25.0753C29.1347 25.2071 29.3135 25.2812 29.5 25.2812C29.6865 25.2812 29.8653 25.2071 29.9972 25.0753C30.129 24.9435 30.2031 24.7646 30.2031 24.5781V23.8047C31.4273 23.5748 32.3125 22.7662 32.3125 21.7656C32.3125 20.583 31.0771 19.6562 29.5 19.6562C28.6415 19.6562 28.0938 19.24 28.0938 18.9531C28.0938 18.6663 28.6415 18.25 29.5 18.25Z" fill="#F38B30"/>
<path d="M26.6875 14.0312H32.3125C32.499 14.0312 32.6778 13.9572 32.8097 13.8253C32.9415 13.6934 33.0156 13.5146 33.0156 13.3281C33.0156 13.1416 32.9415 12.9628 32.8097 12.8309C32.6778 12.6991 32.499 12.625 32.3125 12.625H26.6875C26.501 12.625 26.3222 12.6991 26.1903 12.8309C26.0585 12.9628 25.9844 13.1416 25.9844 13.3281C25.9844 13.5146 26.0585 13.6934 26.1903 13.8253C26.3222 13.9572 26.501 14.0312 26.6875 14.0312Z" fill="#F38B30"/>
<path d="M26.6875 28.0938H32.3125C32.499 28.0938 32.6778 28.0196 32.8097 27.8878C32.9415 27.756 33.0156 27.5771 33.0156 27.3906C33.0156 27.2042 32.9415 27.0253 32.8097 26.8934C32.6778 26.7616 32.499 26.6875 32.3125 26.6875H26.6875C26.501 26.6875 26.3222 26.7616 26.1903 26.8934C26.0585 27.0253 25.9844 27.2042 25.9844 27.3906C25.9844 27.5771 26.0585 27.756 26.1903 27.8878C26.3222 28.0196 26.501 28.0938 26.6875 28.0938Z" fill="#F38B30"/>
<path d="M21.0625 36.5312H37.9375C38.124 36.5312 38.3028 36.4571 38.4347 36.3253C38.5665 36.1935 38.6406 36.0146 38.6406 35.8281C38.6406 35.6417 38.5665 35.4628 38.4347 35.3309C38.3028 35.1991 38.124 35.125 37.9375 35.125H21.0625C20.876 35.125 20.6972 35.1991 20.5653 35.3309C20.4335 35.4628 20.3594 35.6417 20.3594 35.8281C20.3594 36.0146 20.4335 36.1935 20.5653 36.3253C20.6972 36.4571 20.876 36.5312 21.0625 36.5312Z" fill="#F38B30"/>
<path d="M21.0625 33.7188H37.9375C38.124 33.7188 38.3028 33.6446 38.4347 33.5128C38.5665 33.381 38.6406 33.2021 38.6406 33.0156C38.6406 32.8292 38.5665 32.6503 38.4347 32.5184C38.3028 32.3866 38.124 32.3125 37.9375 32.3125H21.0625C20.876 32.3125 20.6972 32.3866 20.5653 32.5184C20.4335 32.6503 20.3594 32.8292 20.3594 33.0156C20.3594 33.2021 20.4335 33.381 20.5653 33.5128C20.6972 33.6446 20.876 33.7188 21.0625 33.7188Z" fill="#F38B30"/>
<path d="M35.125 37.9375H21.0625C20.876 37.9375 20.6972 38.0116 20.5653 38.1434C20.4335 38.2753 20.3594 38.4542 20.3594 38.6406C20.3594 38.8271 20.4335 39.006 20.5653 39.1378C20.6972 39.2696 20.876 39.3438 21.0625 39.3438H35.125C35.3115 39.3438 35.4903 39.2696 35.6222 39.1378C35.754 39.006 35.8281 38.8271 35.8281 38.6406C35.8281 38.4542 35.754 38.2753 35.6222 38.1434C35.4903 38.0116 35.3115 37.9375 35.125 37.9375Z" fill="#F38B30"/>
<path d="M35.125 40.75H21.0625C20.876 40.75 20.6972 40.8241 20.5653 40.9559C20.4335 41.0878 20.3594 41.2667 20.3594 41.4531C20.3594 41.6396 20.4335 41.8185 20.5653 41.9503C20.6972 42.0821 20.876 42.1562 21.0625 42.1562H35.125C35.3115 42.1562 35.4903 42.0821 35.6222 41.9503C35.754 41.8185 35.8281 41.6396 35.8281 41.4531C35.8281 41.2667 35.754 41.0878 35.6222 40.9559C35.4903 40.8241 35.3115 40.75 35.125 40.75Z" fill="#F38B30"/>
<path d="M35.125 28.0938H35.8281C36.0146 28.0938 36.1935 28.0196 36.3253 27.8878C36.4571 27.756 36.5312 27.5771 36.5312 27.3906C36.5312 27.2042 36.4571 27.0253 36.3253 26.8934C36.1935 26.7616 36.0146 26.6875 35.8281 26.6875H35.125C34.9385 26.6875 34.7597 26.7616 34.6278 26.8934C34.496 27.0253 34.4219 27.2042 34.4219 27.3906C34.4219 27.5771 34.496 27.756 34.6278 27.8878C34.7597 28.0196 34.9385 28.0938 35.125 28.0938Z" fill="#F57E16"/>
<path d="M23.1719 28.0938H23.875C24.0615 28.0938 24.2403 28.0196 24.3722 27.8878C24.504 27.756 24.5781 27.5771 24.5781 27.3906C24.5781 27.2042 24.504 27.0253 24.3722 26.8934C24.2403 26.7616 24.0615 26.6875 23.875 26.6875H23.1719C22.9854 26.6875 22.8065 26.7616 22.6747 26.8934C22.5429 27.0253 22.4688 27.2042 22.4688 27.3906C22.4688 27.5771 22.5429 27.756 22.6747 27.8878C22.8065 28.0196 22.9854 28.0938 23.1719 28.0938Z" fill="#F57E16"/>
<path d="M35.125 14.0312H35.8281C36.0146 14.0312 36.1935 13.9572 36.3253 13.8253C36.4571 13.6934 36.5312 13.5146 36.5312 13.3281C36.5312 13.1416 36.4571 12.9628 36.3253 12.8309C36.1935 12.6991 36.0146 12.625 35.8281 12.625H35.125C34.9385 12.625 34.7597 12.6991 34.6278 12.8309C34.496 12.9628 34.4219 13.1416 34.4219 13.3281C34.4219 13.5146 34.496 13.6934 34.6278 13.8253C34.7597 13.9572 34.9385 14.0312 35.125 14.0312Z" fill="#F57E16"/>
<path d="M23.1719 14.0312H23.875C24.0615 14.0312 24.2403 13.9572 24.3722 13.8253C24.504 13.6934 24.5781 13.5146 24.5781 13.3281C24.5781 13.1416 24.504 12.9628 24.3722 12.8309C24.2403 12.6991 24.0615 12.625 23.875 12.625H23.1719C22.9854 12.625 22.8065 12.6991 22.6747 12.8309C22.5429 12.9628 22.4688 13.1416 22.4688 13.3281C22.4688 13.5146 22.5429 13.6934 22.6747 13.8253C22.8065 13.9572 22.9854 14.0312 23.1719 14.0312Z" fill="#F57E16"/>
<path d="M44.2656 36.5664V23.875H49.1875C49.374 23.875 49.5528 23.8009 49.6847 23.6691C49.8166 23.5372 49.8906 23.3583 49.8906 23.1719V11.9219C49.8906 10.9895 49.5202 10.0953 48.8609 9.43596C48.2017 8.77664 47.3074 8.40625 46.375 8.40625H18.25C17.3176 8.40625 16.4234 8.77664 15.7641 9.43596C15.1048 10.0953 14.7344 10.9895 14.7344 11.9219V49.8906C14.7339 50.0297 14.7752 50.1658 14.8529 50.2811C14.9306 50.3965 15.0412 50.4857 15.1703 50.5375C15.2538 50.5769 15.3453 50.5962 15.4375 50.5937C15.6243 50.5943 15.8038 50.521 15.9367 50.3898L18.25 48.0695L20.5633 50.3898C20.696 50.5216 20.8755 50.5955 21.0625 50.5955C21.2495 50.5955 21.429 50.5216 21.5617 50.3898L23.875 48.0695L26.1883 50.3898C26.321 50.5216 26.5005 50.5955 26.6875 50.5955C26.8745 50.5955 27.054 50.5216 27.1867 50.3898L29.5 48.0695L31.8133 50.3898C31.946 50.5216 32.1255 50.5955 32.3125 50.5955C32.4995 50.5955 32.679 50.5216 32.8117 50.3898L35.125 48.0695L37.4383 50.3898C37.571 50.5216 37.7505 50.5955 37.9375 50.5955C38.1245 50.5955 38.304 50.5216 38.4367 50.3898L39.5195 49.307C40.3988 49.928 41.4089 50.3388 42.472 50.5078C43.5351 50.6768 44.6228 50.5994 45.6513 50.2817C46.6797 49.964 47.6215 49.4143 48.4041 48.6751C49.1866 47.9359 49.789 47.0269 50.1647 46.0182C50.5405 45.0095 50.6796 43.928 50.5714 42.857C50.4632 41.786 50.1106 40.7541 49.5406 39.8409C48.9707 38.9278 48.1987 38.1576 47.2841 37.5899C46.3696 37.0222 45.3369 36.672 44.2656 36.5664ZM44.2656 11.9219C44.2656 11.3624 44.4879 10.8259 44.8835 10.4303C45.279 10.0347 45.8156 9.8125 46.375 9.8125C46.9345 9.8125 47.471 10.0347 47.8665 10.4303C48.2621 10.8259 48.4844 11.3624 48.4844 11.9219V22.4687H44.2656V11.9219ZM37.9375 48.8992L35.6242 46.5789C35.4915 46.4471 35.312 46.3732 35.125 46.3732C34.938 46.3732 34.7585 46.4471 34.6258 46.5789L32.3125 48.8992L29.9992 46.5789C29.8665 46.4471 29.687 46.3732 29.5 46.3732C29.313 46.3732 29.1335 46.4471 29.0008 46.5789L26.6875 48.8992L24.3742 46.5789C24.2415 46.4471 24.062 46.3732 23.875 46.3732C23.688 46.3732 23.5085 46.4471 23.3758 46.5789L21.0625 48.8992L18.7492 46.5789C18.6165 46.4471 18.437 46.3732 18.25 46.3732C18.063 46.3732 17.8835 46.4471 17.7508 46.5789L16.1406 48.1961V11.9219C16.1423 11.3629 16.3651 10.8274 16.7603 10.4322C17.1555 10.0369 17.6911 9.81417 18.25 9.8125H43.5836C43.1162 10.4165 42.8615 11.1581 42.8594 11.9219V36.5664C41.5523 36.6952 40.3075 37.1883 39.2668 37.9897C38.2261 38.791 37.4312 39.8683 36.9725 41.0992C36.5139 42.33 36.41 43.6648 36.6726 44.9517C36.9351 46.2387 37.5537 47.4262 38.4578 48.3789L37.9375 48.8992ZM43.5625 49.1875C42.45 49.1875 41.3624 48.8576 40.4374 48.2395C39.5124 47.6214 38.7915 46.7429 38.3657 45.7151C37.94 44.6873 37.8285 43.5562 38.0456 42.4651C38.2626 41.374 38.7983 40.3717 39.5851 39.585C40.3717 38.7983 41.374 38.2626 42.4651 38.0456C43.5562 37.8285 44.6873 37.94 45.7151 38.3657C46.743 38.7914 47.6214 39.5124 48.2396 40.4374C48.8576 41.3624 49.1875 42.4499 49.1875 43.5625C49.1855 45.0537 48.5922 46.4833 47.5377 47.5377C46.4833 48.5922 45.0537 49.1855 43.5625 49.1875Z" fill="#F57E16"/>
<path d="M47.3341 41.1973C47.2022 41.0655 47.0234 40.9915 46.837 40.9915C46.6505 40.9915 46.4717 41.0655 46.3399 41.1973L42.8594 44.6777L41.3674 43.1858C41.2348 43.0577 41.0572 42.9868 40.8728 42.9884C40.6885 42.99 40.512 43.0639 40.3817 43.1943C40.2513 43.3246 40.1774 43.501 40.1758 43.6853C40.1742 43.8697 40.2451 44.0473 40.3732 44.1799L42.3623 46.1691C42.4942 46.3009 42.673 46.3749 42.8594 46.3749C43.0458 46.3749 43.2246 46.3009 43.3565 46.1691L47.3341 42.1915C47.4659 42.0596 47.5399 41.8808 47.5399 41.6944C47.5399 41.508 47.4659 41.3292 47.3341 41.1973Z" fill="#F57E16"/>
</svg>
