<svg width="59" height="59" viewBox="0 0 59 59" fill="none" xmlns="http://www.w3.org/2000/svg">
<circle cx="29.5" cy="29.5" r="29.5" fill="#274C2A"/>
<path d="M14.1917 16.127C13.2799 16.6564 12.656 17.6466 12.656 18.7812C12.656 20.4785 14.0376 21.8452 15.7199 21.8452H16.4197C16.9558 22.9277 17.7495 23.8382 18.7793 24.5249V25.6749C18.7503 25.6749 18.7237 25.672 18.6956 25.6749C18.6135 25.6836 18.5327 25.707 18.4578 25.7423L14.1767 27.7461C13.2977 28.171 12.425 28.5601 11.681 29.1442C10.8894 29.7658 10.3381 30.5611 10.1588 31.6759L8.86686 40.5359C8.67501 41.7608 9.21575 42.8562 10.0482 43.6074C10.8819 44.3598 12.0199 44.8128 13.2137 44.8126C18.3873 44.8148 23.5606 44.8111 28.7321 44.8111C28.7816 44.8111 28.8177 44.8132 28.8666 44.8082C29.6319 49.1235 33.5875 52.469 39.4535 52.469C46.0168 52.469 50.1718 48.286 50.1718 43.2515C50.1718 40.8625 49.081 38.9074 47.8691 37.1938C47.8696 37.1736 47.8749 37.1736 47.8749 37.1536C47.8749 36.5605 47.6558 36.0291 47.2887 35.6239C47.6554 35.217 47.8749 34.6839 47.8749 34.0911C47.8749 33.2708 47.4308 32.5463 46.8162 32.1561C47.0072 31.8214 47.1107 31.4396 47.1107 31.0256C47.1107 29.7494 46.0702 28.7317 44.811 28.7317H44.15C44.5515 27.5714 45.4658 26.3151 45.5691 24.7107C45.5778 24.6028 45.5749 24.5192 45.5749 24.4251C45.5749 23.3479 45.0435 22.5748 44.253 22.1701C43.5992 21.8354 42.8066 21.7764 42.2252 21.9322C41.0829 22.212 40.4586 22.9546 39.4529 23.779C39.3004 23.6549 39.1269 23.5067 38.9788 23.3768C38.3248 22.8029 37.6724 22.1673 36.6686 21.9382C36.0658 21.7788 35.2923 21.8387 34.6454 22.17C33.8584 22.5729 33.3281 23.3478 33.3281 24.425C33.3281 25.8911 34.0128 27.0409 34.4854 28.0752C33.9787 28.223 33.4995 28.5456 33.2069 28.9081C32.5396 28.4488 31.8012 28.1114 31.0433 27.7462L26.7592 25.7424C26.6564 25.6947 26.5479 25.6724 26.4392 25.6721L26.4407 24.5237C27.445 23.8554 28.2642 22.9296 28.8003 21.8455H29.4986C31.1807 21.8455 32.5625 20.4788 32.5625 18.7815C32.5625 17.6495 31.9411 16.659 31.0328 16.1287V14.9534C31.0328 10.3009 27.2905 6.53151 22.6112 6.53137C17.9319 6.53125 14.1911 10.3006 14.1914 14.9531L14.1917 16.127ZM39.4535 6.53125C39.0706 6.53125 38.6879 6.78619 38.6879 7.29687V8.06251C38.6879 9.08358 40.2191 9.08358 40.2191 8.06251V7.29687C40.2191 6.78633 39.8364 6.53125 39.4535 6.53125ZM36.3911 8.82812C36.0082 8.82812 35.6255 9.08335 35.6255 9.59374V10.3594C35.6255 11.3805 37.1567 11.3805 37.1567 10.3594V9.59374C37.1567 9.0832 36.774 8.82812 36.3911 8.82812ZM42.5159 8.82812C42.133 8.82812 41.7503 9.08335 41.7503 9.59374V10.3594C41.7503 11.3805 43.2815 11.3805 43.2815 10.3594V9.59374C43.2815 9.0832 42.8988 8.82812 42.5159 8.82812ZM39.4535 11.8891C36.9045 11.8891 34.8584 13.9564 34.8584 16.4844C34.8584 19.0123 36.9129 21.0796 39.4535 21.0796C41.994 21.0796 44.0486 19.0123 44.0486 16.4844C44.0486 13.9564 42.0025 11.8891 39.4535 11.8891ZM19.9531 15.2014C20.7657 15.5093 21.5733 15.7217 22.6117 15.7217C23.4495 15.7217 24.4056 15.5571 25.2644 15.2028C25.8275 16.2174 26.8227 16.9274 27.9695 17.1722V18.8306C27.9695 21.7822 25.568 24.1421 22.6117 24.1421C19.626 24.1421 17.2481 21.7463 17.2481 18.8306V17.1722C18.3792 16.9425 19.4287 16.1879 19.9531 15.2014ZM15.7199 17.25L15.7228 18.8306C15.7228 19.341 15.7746 19.8351 15.8814 20.314H15.7199C14.8651 20.314 14.1887 19.618 14.1887 18.7812C14.1887 17.9444 14.8651 17.25 15.7199 17.25ZM29.5007 17.25C30.3547 17.2509 31.0319 17.9449 31.0319 18.7812C31.0319 19.618 30.3539 20.3125 29.4992 20.3125H29.3377C29.4436 19.8346 29.5006 19.3402 29.5006 18.8306L29.5007 17.25ZM45.5754 39.4546C46.1705 39.4546 46.7244 39.2237 47.135 38.8475C48.0167 40.2187 48.6408 41.6272 48.6408 43.2513C48.6408 47.4382 45.1506 50.9375 39.4536 50.9375C33.9386 50.9375 30.5019 47.6717 30.2783 43.6924C30.2812 43.6867 30.2957 43.6479 30.2986 43.6415C30.5541 43.0665 30.6485 42.4077 30.6485 41.7484C30.6485 41.5007 30.6283 41.255 30.5993 41.0127C31.4212 38.0544 34.2372 35.7981 35.5563 33.3265H36.7764C38.2477 33.3265 39.4545 32.1361 39.4545 30.6468C39.4545 29.1576 38.2477 27.9686 36.7764 27.9686H36.1066C35.7117 26.926 34.861 25.6574 34.861 24.4246C34.861 23.8459 35.1636 23.6258 35.3469 23.5319C35.5327 23.4367 35.7422 23.395 35.8927 23.3855C36.0611 23.3739 36.2064 23.3941 36.2994 23.4185C36.8684 23.5446 37.3063 23.9421 37.9861 24.5385C38.6658 25.1348 39.539 25.8713 40.8541 26.3075C41.8965 26.5882 42.7362 26.6734 43.4305 26.5841C43.1394 27.1922 42.7264 27.9702 42.5363 28.8047C42.5305 28.825 42.5248 28.8397 42.5219 28.8615C41.6312 29.1743 40.9862 30.0192 40.9862 31.0252C40.9862 31.6188 41.2032 32.1524 41.5708 32.5595C41.2179 32.9529 40.9862 33.4968 40.9862 34.0907C40.9862 34.6835 41.2058 35.2166 41.5723 35.6235C41.2053 36.0287 40.9862 36.5601 40.9862 37.1562L40.2176 37.1591V36.389C40.2205 35.9597 39.8723 35.6109 39.443 35.6159C39.0231 35.6246 38.6882 35.969 38.6924 36.389V37.1591H37.9238C36.6307 37.1591 35.6285 38.1938 35.6285 39.453V40.9842C35.6285 42.2704 36.6646 43.2796 37.9238 43.2796H38.6924V46.3421H37.9238C37.5013 46.3421 37.1612 46.0169 37.1612 45.5795C37.1612 44.5577 35.6285 44.5577 35.6285 45.5795C35.6285 46.8716 36.6646 47.8734 37.9238 47.8734H38.6924V48.6435C38.6924 49.6565 40.2176 49.672 40.2176 48.6435V47.8735H40.9862C42.2749 47.8735 43.2815 46.8388 43.2815 45.5796V44.0483C43.2815 42.7891 42.2603 41.747 40.9862 41.747H40.2177V38.6905H40.9863C41.4236 38.6905 41.7489 39.0369 41.7489 39.4531C41.7479 40.4749 43.2806 40.4764 43.2839 39.4546H45.5754ZM20.312 25.2844C21.0325 25.5384 21.8041 25.6762 22.6117 25.6762C23.4193 25.6762 24.1863 25.5387 24.9056 25.2859V26.8859L23.0589 28.7327H22.1602L20.312 26.8859V25.2844ZM18.6223 27.3599L20.7606 29.5043L19.6107 30.6542L17.4275 27.9192L18.6223 27.3599ZM26.6013 27.3599L27.796 27.9192L25.6069 30.6542L24.4585 29.5028L26.6013 27.3599ZM29.2226 28.5861L30.3889 29.1319C31.2829 29.5627 32.047 29.9218 32.581 30.3417C32.5694 30.4386 32.5636 30.5483 32.5636 30.6482C32.5636 31.674 33.1336 32.557 33.9707 33.0079C32.8212 34.9007 30.9257 36.5721 29.7196 39.0551C29.4641 38.8384 29.1211 38.6858 28.7326 38.6858H27.9715C27.9686 37.8354 27.8159 37.1197 27.4781 36.5713C27.1276 36.0025 26.5701 35.6263 25.8617 35.6263C25.3926 35.6263 25.0158 35.7967 24.7207 36.033L24.1884 32.8434L24.9196 32.1241L25.1335 32.3394C25.4556 32.6589 25.9834 32.6297 26.2684 32.2766L29.2226 28.5861ZM15.9965 28.5877L18.9497 32.2767C19.2351 32.6342 19.7679 32.6635 20.0907 32.3395L20.3196 32.1092L21.0283 32.818L20.0444 38.6918H17.5592L17.7236 38.2222C18.0589 37.2577 16.6114 36.7552 16.2761 37.7198L15.7617 39.2077C15.5936 39.7034 15.962 40.2188 16.4855 40.2199L21.8432 40.217V43.281C18.9658 43.2801 16.0904 43.2825 13.2137 43.2825C12.4189 43.2825 11.6139 42.9565 11.077 42.472C10.54 41.9874 10.2847 41.3869 10.3816 40.7717L11.6706 31.9147C11.7863 31.1861 12.1475 30.7283 12.6305 30.3491C13.1648 29.9296 13.9408 29.5624 14.8316 29.1319L15.9965 28.5877ZM35.2412 29.5013C35.7529 29.51 36.2527 29.5013 36.7754 29.5013C37.4248 29.5013 37.9223 30.0196 37.9223 30.6482C37.9223 31.2768 37.4248 31.7951 36.7754 31.7951H35.2412C34.5917 31.7951 34.0943 31.2768 34.0943 30.6482C34.0943 30.0196 34.6037 29.5013 35.2412 29.5013ZM22.1602 30.2639H23.0589L23.8364 31.043L22.6177 32.2423L21.4006 31.025L22.1602 30.2639ZM43.2845 30.2639H44.8112C45.2486 30.2639 45.5798 30.6102 45.5798 31.0265C45.5798 31.4429 45.2486 31.7951 44.8112 31.7951H43.2845C42.847 31.7951 42.5159 31.4429 42.5159 31.0265C42.5159 30.6102 42.847 30.2639 43.2845 30.2639ZM43.2845 33.3294H45.5753C46.0127 33.3294 46.3439 33.6757 46.3439 34.092C46.3439 34.5083 46.0127 34.8606 45.5753 34.8606H43.2845C42.847 34.8606 42.5159 34.5083 42.5159 34.092C42.5159 33.6757 42.847 33.3294 43.2845 33.3294ZM22.374 34.0457C22.5245 34.0951 22.6863 34.0966 22.8375 34.0514L23.485 37.9349C23.3771 38.1213 23.2677 38.2784 23.1605 38.3925C22.9811 38.5838 22.8067 38.6743 22.5549 38.693H21.6009L22.374 34.0457ZM15.7199 34.0951C14.6979 34.0942 14.6979 35.6255 15.7199 35.6264H18.7823C19.8042 35.6273 19.8042 34.096 18.7823 34.0951H15.7199ZM43.28 36.3935H43.2858H45.5811C46.016 36.3961 46.3451 36.7399 46.3451 37.1546C46.3451 37.571 46.014 37.9233 45.5765 37.9233H43.2857C42.8483 37.9233 42.5171 37.571 42.5171 37.1546C42.5171 36.7399 42.845 36.3961 43.28 36.3935ZM25.8611 37.1606C25.9378 37.1606 26.0405 37.1609 26.1721 37.3745C26.3243 37.6213 26.4447 38.0432 26.4383 38.7502V39.4545C26.4399 39.8775 26.7839 40.2188 27.2069 40.2172L28.7291 40.2201C28.7592 40.2519 28.833 40.3399 28.8967 40.4834C29.024 40.7699 29.1166 41.2607 29.1166 41.75C29.1166 42.2392 29.024 42.7345 28.8967 43.021C28.833 43.1643 28.7624 43.2534 28.7323 43.2826L23.3746 43.2811V40.0616C23.7216 39.9259 24.0207 39.7123 24.2643 39.4529C24.6366 39.0565 24.8749 38.6 25.0703 38.2163C25.2656 37.8325 25.4342 37.5047 25.5727 37.3355C25.7113 37.1662 25.7844 37.1606 25.8611 37.1606ZM37.9223 38.6919H38.6909V41.7484H37.9223C37.4998 41.7484 37.1597 41.4232 37.1597 40.9858V39.4545C37.1597 39.0172 37.5018 38.6919 37.9223 38.6919ZM40.2161 43.2812H40.9847C41.4221 43.2812 41.7473 43.6334 41.7473 44.0498V45.581C41.7473 46.0184 41.4052 46.3436 40.9847 46.3436H40.2161V43.2812Z" fill="#12A454"/>
</svg>
