<svg width="46" height="46" viewBox="0 0 46 46" fill="none" xmlns="http://www.w3.org/2000/svg">
<path d="M20.2054 6.48238e-07C19.7159 0.000260652 19.2985 0.354846 19.2191 0.837903L18.2464 6.79307C17.0768 7.13331 15.9615 7.59239 14.9104 8.16419L9.99627 4.65436C9.59899 4.37067 9.05495 4.41525 8.70914 4.75983L4.81846 8.64661C4.47526 8.99006 4.42831 9.53039 4.70713 9.92788L8.16422 14.8733C7.5836 15.9305 7.11435 17.0521 6.76575 18.2327L0.835974 19.219C0.354467 19.3001 0.00192149 19.7171 0.0019815 20.2054V25.7055C0.00110148 26.1907 0.348587 26.6065 0.826214 26.6918L6.75989 27.7426C7.1066 28.9212 7.57287 30.0435 8.15445 31.102L4.65439 35.9986C4.3707 36.3959 4.41528 36.9399 4.75986 37.2857L8.64859 41.1764C8.99125 41.5192 9.53036 41.5669 9.92791 41.2897L14.8831 37.8209C15.9373 38.3961 17.0553 38.8585 18.2288 39.2018L19.2191 45.1647C19.2993 45.647 19.7165 46.0006 20.2054 46.0007H25.7055C26.1913 46.0014 26.6073 45.6529 26.6918 45.1745L27.7524 39.1881C28.9211 38.8396 30.0339 38.3703 31.0825 37.7916L36.0709 41.2916C36.4684 41.5705 37.0087 41.5235 37.3522 41.1803L41.2409 37.2877C41.587 36.9408 41.6308 36.3942 41.3444 35.9966L37.7877 31.0591C38.3564 30.0154 38.8145 28.9093 39.1549 27.7485L45.1726 26.6938C45.651 26.6093 45.9995 26.1932 45.9988 25.7074V20.2073C45.9985 19.7178 45.6439 19.3004 45.1609 19.221L39.153 18.2385C38.8103 17.0791 38.3509 15.975 37.7819 14.9319L41.2897 9.93373C41.5686 9.53624 41.5216 8.99591 41.1784 8.65246L37.2877 4.76373C36.9408 4.41761 36.3943 4.37378 35.9967 4.66021L31.0728 8.20129C30.0237 7.62492 28.9102 7.15809 27.7387 6.81259L26.6919 0.828133C26.6082 0.348956 26.1919 -0.00054936 25.7055 6.48238e-07H20.2054ZM21.057 2.00003H24.8656L25.8617 7.68567C25.9295 8.07526 26.2204 8.38837 26.6039 8.48451C28.0665 8.84898 29.4401 9.42669 30.6939 10.1857C31.0365 10.3933 31.47 10.3764 31.7954 10.1427L36.4752 6.7794L39.1686 9.47281L35.8365 14.2209C35.6091 14.5445 35.5938 14.9717 35.7974 15.3108C36.5489 16.5617 37.1189 17.9267 37.483 19.3812C37.5799 19.7683 37.8978 20.0608 38.2916 20.1253L43.9987 21.0589V24.8676L38.2799 25.8715C37.89 25.9405 37.5775 26.2331 37.483 26.6176C37.1231 28.0702 36.5528 29.4351 35.8014 30.686C35.5952 31.0286 35.6128 31.461 35.8463 31.7856L39.2252 36.4752L36.5318 39.1705L31.7915 35.8443C31.4663 35.6165 31.037 35.6027 30.6978 35.8091C29.4502 36.5681 28.0752 37.1486 26.6176 37.5181C26.2359 37.6144 25.9462 37.9255 25.8774 38.3131L24.8676 44.0007H21.0531L20.1117 38.3385C20.0462 37.9448 19.7529 37.6277 19.3656 37.5318C17.9022 37.1711 16.5224 36.5942 15.26 35.8365C14.9215 35.6337 14.4953 35.649 14.1721 35.8755L9.46894 39.1705L6.77358 36.4712L10.0979 31.8247C10.3301 31.4993 10.3462 31.0669 10.1389 30.7251C9.37284 29.4593 8.79351 28.0796 8.42791 26.6098C8.33236 26.2273 8.02106 25.9367 7.63298 25.8676L2.00203 24.8675V21.053L7.62907 20.1175C8.02219 20.0523 8.3391 19.7599 8.43572 19.3733C8.80446 17.8984 9.38351 16.519 10.1467 15.2561C10.3523 14.9173 10.3385 14.4891 10.1115 14.1643L6.82632 9.46888L9.52363 6.77352L14.1858 10.1056C14.5099 10.3367 14.9403 10.3536 15.2815 10.1486C16.5372 9.39441 17.9202 8.8222 19.3851 8.463C19.7744 8.36716 20.0688 8.04813 20.1332 7.65244L21.057 2.00003ZM23.0004 15.0002C18.5939 15.0002 15.0003 18.5939 15.0003 23.0004C15.0003 27.4068 18.5939 31.0005 23.0004 31.0005C27.4069 31.0005 31.0005 27.4068 31.0005 23.0004C31.0005 18.5939 27.4069 15.0002 23.0004 15.0002ZM23.0004 17.0003C26.326 17.0003 29.0005 19.6748 29.0005 23.0004C29.0005 26.326 26.326 29.0004 23.0004 29.0004C19.6748 29.0004 17.0003 26.326 17.0003 23.0004C17.0003 19.6748 19.6748 17.0003 23.0004 17.0003Z" fill="white"/>
</svg>
