<svg width="59" height="59" viewBox="0 0 59 59" fill="none" xmlns="http://www.w3.org/2000/svg">
<circle cx="29.5" cy="29.5" r="29.5" fill="#1D2868"/>
<path d="M22.4688 33.7188L16 13.3281C15.7188 12.0625 14.4531 11.2188 13.1875 11.2188H9.8125" stroke="#798AFE" stroke-width="2" stroke-miterlimit="10" stroke-linejoin="round"/>
<path d="M43.5625 39.3438H18.8125C17.2656 39.3438 16 38.0781 16 36.5312C16 34.9844 17.2656 34 18.8125 33.7188L47.7813 29.5V15.4375H22.4687" stroke="#798AFE" stroke-width="2" stroke-miterlimit="10" stroke-linejoin="round"/>
<path d="M22.4688 47.7812C23.2454 47.7812 23.875 47.1517 23.875 46.375C23.875 45.5983 23.2454 44.9688 22.4688 44.9688C21.6921 44.9688 21.0625 45.5983 21.0625 46.375C21.0625 47.1517 21.6921 47.7812 22.4688 47.7812Z" stroke="#798AFE" stroke-width="2" stroke-miterlimit="10" stroke-linejoin="round"/>
<path d="M40.75 47.7812C41.5267 47.7812 42.1562 47.1517 42.1562 46.375C42.1562 45.5983 41.5267 44.9688 40.75 44.9688C39.9733 44.9688 39.3438 45.5983 39.3438 46.375C39.3438 47.1517 39.9733 47.7812 40.75 47.7812Z" stroke="#798AFE" stroke-width="2" stroke-miterlimit="10" stroke-linejoin="round"/>
</svg>
