<svg width="37" height="43" viewBox="0 0 37 43" fill="none" xmlns="http://www.w3.org/2000/svg">
<path d="M15.5 10.25C16.3585 10.25 16.9062 10.6663 16.9062 10.9531C16.9062 11.1396 16.9804 11.3185 17.1122 11.4503C17.244 11.5821 17.4229 11.6562 17.6094 11.6562C17.7958 11.6562 17.9747 11.5821 18.1066 11.4503C18.2384 11.3185 18.3125 11.1396 18.3125 10.9531C18.3125 9.95398 17.4273 9.14539 16.2031 8.91406V8.14062C16.2031 7.95416 16.129 7.77528 15.9972 7.64345C15.8653 7.51161 15.6865 7.4375 15.5 7.4375C15.3135 7.4375 15.1347 7.51161 15.0028 7.64345C14.871 7.77528 14.7969 7.95416 14.7969 8.14062V8.91406C13.5727 9.14398 12.6875 9.95258 12.6875 10.9531C12.6875 12.1358 13.9229 13.0625 15.5 13.0625C16.3585 13.0625 16.9062 13.4788 16.9062 13.7656C16.9062 14.0525 16.3585 14.4688 15.5 14.4688C14.6415 14.4688 14.0938 14.0525 14.0938 13.7656C14.0938 13.5792 14.0196 13.4003 13.8878 13.2684C13.756 13.1366 13.5771 13.0625 13.3906 13.0625C13.2042 13.0625 13.0253 13.1366 12.8934 13.2684C12.7616 13.4003 12.6875 13.5792 12.6875 13.7656C12.6875 14.7648 13.5727 15.5734 14.7969 15.8047V16.5781C14.7969 16.7646 14.871 16.9435 15.0028 17.0753C15.1347 17.2071 15.3135 17.2812 15.5 17.2812C15.6865 17.2812 15.8653 17.2071 15.9972 17.0753C16.129 16.9435 16.2031 16.7646 16.2031 16.5781V15.8047C17.4273 15.5748 18.3125 14.7662 18.3125 13.7656C18.3125 12.583 17.0771 11.6562 15.5 11.6562C14.6415 11.6562 14.0938 11.24 14.0938 10.9531C14.0938 10.6663 14.6415 10.25 15.5 10.25Z" fill="white"/>
<path d="M12.6875 6.03125H18.3125C18.499 6.03125 18.6778 5.95717 18.8097 5.82531C18.9415 5.69345 19.0156 5.51461 19.0156 5.32812C19.0156 5.14164 18.9415 4.9628 18.8097 4.83094C18.6778 4.69908 18.499 4.625 18.3125 4.625H12.6875C12.501 4.625 12.3222 4.69908 12.1903 4.83094C12.0585 4.9628 11.9844 5.14164 11.9844 5.32812C11.9844 5.51461 12.0585 5.69345 12.1903 5.82531C12.3222 5.95717 12.501 6.03125 12.6875 6.03125Z" fill="white"/>
<path d="M12.6875 20.0938H18.3125C18.499 20.0938 18.6778 20.0196 18.8097 19.8878C18.9415 19.756 19.0156 19.5771 19.0156 19.3906C19.0156 19.2042 18.9415 19.0253 18.8097 18.8934C18.6778 18.7616 18.499 18.6875 18.3125 18.6875H12.6875C12.501 18.6875 12.3222 18.7616 12.1903 18.8934C12.0585 19.0253 11.9844 19.2042 11.9844 19.3906C11.9844 19.5771 12.0585 19.756 12.1903 19.8878C12.3222 20.0196 12.501 20.0938 12.6875 20.0938Z" fill="white"/>
<path d="M7.0625 28.5312H23.9375C24.124 28.5312 24.3028 28.4571 24.4347 28.3253C24.5665 28.1935 24.6406 28.0146 24.6406 27.8281C24.6406 27.6417 24.5665 27.4628 24.4347 27.3309C24.3028 27.1991 24.124 27.125 23.9375 27.125H7.0625C6.87603 27.125 6.69716 27.1991 6.56532 27.3309C6.43348 27.4628 6.35938 27.6417 6.35938 27.8281C6.35938 28.0146 6.43348 28.1935 6.56532 28.3253C6.69716 28.4571 6.87603 28.5312 7.0625 28.5312Z" fill="white"/>
<path d="M7.0625 25.7188H23.9375C24.124 25.7188 24.3028 25.6446 24.4347 25.5128C24.5665 25.381 24.6406 25.2021 24.6406 25.0156C24.6406 24.8292 24.5665 24.6503 24.4347 24.5184C24.3028 24.3866 24.124 24.3125 23.9375 24.3125H7.0625C6.87603 24.3125 6.69716 24.3866 6.56532 24.5184C6.43348 24.6503 6.35938 24.8292 6.35938 25.0156C6.35938 25.2021 6.43348 25.381 6.56532 25.5128C6.69716 25.6446 6.87603 25.7188 7.0625 25.7188Z" fill="white"/>
<path d="M21.125 29.9375H7.0625C6.87603 29.9375 6.69716 30.0116 6.56532 30.1434C6.43348 30.2753 6.35938 30.4542 6.35938 30.6406C6.35938 30.8271 6.43348 31.006 6.56532 31.1378C6.69716 31.2696 6.87603 31.3438 7.0625 31.3438H21.125C21.3115 31.3438 21.4903 31.2696 21.6222 31.1378C21.754 31.006 21.8281 30.8271 21.8281 30.6406C21.8281 30.4542 21.754 30.2753 21.6222 30.1434C21.4903 30.0116 21.3115 29.9375 21.125 29.9375Z" fill="white"/>
<path d="M21.125 32.75H7.0625C6.87603 32.75 6.69716 32.8241 6.56532 32.9559C6.43348 33.0878 6.35938 33.2667 6.35938 33.4531C6.35938 33.6396 6.43348 33.8185 6.56532 33.9503C6.69716 34.0821 6.87603 34.1562 7.0625 34.1562H21.125C21.3115 34.1562 21.4903 34.0821 21.6222 33.9503C21.754 33.8185 21.8281 33.6396 21.8281 33.4531C21.8281 33.2667 21.754 33.0878 21.6222 32.9559C21.4903 32.8241 21.3115 32.75 21.125 32.75Z" fill="white"/>
<path d="M21.125 20.0938H21.8281C22.0146 20.0938 22.1935 20.0196 22.3253 19.8878C22.4571 19.756 22.5312 19.5771 22.5312 19.3906C22.5312 19.2042 22.4571 19.0253 22.3253 18.8934C22.1935 18.7616 22.0146 18.6875 21.8281 18.6875H21.125C20.9385 18.6875 20.7597 18.7616 20.6278 18.8934C20.496 19.0253 20.4219 19.2042 20.4219 19.3906C20.4219 19.5771 20.496 19.756 20.6278 19.8878C20.7597 20.0196 20.9385 20.0938 21.125 20.0938Z" fill="white"/>
<path d="M9.17188 20.0938H9.875C10.0615 20.0938 10.2403 20.0196 10.3722 19.8878C10.504 19.756 10.5781 19.5771 10.5781 19.3906C10.5781 19.2042 10.504 19.0253 10.3722 18.8934C10.2403 18.7616 10.0615 18.6875 9.875 18.6875H9.17188C8.98541 18.6875 8.80653 18.7616 8.6747 18.8934C8.54286 19.0253 8.46875 19.2042 8.46875 19.3906C8.46875 19.5771 8.54286 19.756 8.6747 19.8878C8.80653 20.0196 8.98541 20.0938 9.17188 20.0938Z" fill="white"/>
<path d="M21.125 6.03125H21.8281C22.0146 6.03125 22.1935 5.95717 22.3253 5.82531C22.4571 5.69345 22.5312 5.51461 22.5312 5.32812C22.5312 5.14164 22.4571 4.9628 22.3253 4.83094C22.1935 4.69908 22.0146 4.625 21.8281 4.625H21.125C20.9385 4.625 20.7597 4.69908 20.6278 4.83094C20.496 4.9628 20.4219 5.14164 20.4219 5.32812C20.4219 5.51461 20.496 5.69345 20.6278 5.82531C20.7597 5.95717 20.9385 6.03125 21.125 6.03125Z" fill="white"/>
<path d="M9.17188 6.03125H9.875C10.0615 6.03125 10.2403 5.95717 10.3722 5.82531C10.504 5.69345 10.5781 5.51461 10.5781 5.32812C10.5781 5.14164 10.504 4.9628 10.3722 4.83094C10.2403 4.69908 10.0615 4.625 9.875 4.625H9.17188C8.98541 4.625 8.80653 4.69908 8.6747 4.83094C8.54286 4.9628 8.46875 5.14164 8.46875 5.32812C8.46875 5.51461 8.54286 5.69345 8.6747 5.82531C8.80653 5.95717 8.98541 6.03125 9.17188 6.03125Z" fill="white"/>
<path d="M30.2656 28.5664V15.875H35.1875C35.374 15.875 35.5528 15.8009 35.6847 15.6691C35.8166 15.5372 35.8906 15.3583 35.8906 15.1719V3.92187C35.8906 2.98947 35.5202 2.09526 34.8609 1.43596C34.2017 0.776642 33.3074 0.40625 32.375 0.40625H4.25C3.31759 0.40625 2.42343 0.776642 1.76411 1.43596C1.10479 2.09526 0.734379 2.98947 0.734379 3.92187V41.8906C0.733887 42.0297 0.775161 42.1658 0.852856 42.2811C0.930621 42.3965 1.04122 42.4857 1.17032 42.5375C1.25378 42.5769 1.34525 42.5962 1.4375 42.5937C1.62432 42.5943 1.80376 42.521 1.93672 42.3898L4.25 40.0695L6.56329 42.3898C6.69604 42.5216 6.87547 42.5955 7.0625 42.5955C7.24954 42.5955 7.42897 42.5216 7.56172 42.3898L9.875 40.0695L12.1883 42.3898C12.321 42.5216 12.5005 42.5955 12.6875 42.5955C12.8745 42.5955 13.054 42.5216 13.1867 42.3898L15.5 40.0695L17.8133 42.3898C17.946 42.5216 18.1255 42.5955 18.3125 42.5955C18.4995 42.5955 18.679 42.5216 18.8117 42.3898L21.125 40.0695L23.4383 42.3898C23.571 42.5216 23.7505 42.5955 23.9375 42.5955C24.1245 42.5955 24.304 42.5216 24.4367 42.3898L25.5195 41.307C26.3988 41.928 27.4089 42.3388 28.472 42.5078C29.5351 42.6768 30.6228 42.5994 31.6513 42.2817C32.6797 41.964 33.6215 41.4143 34.4041 40.6751C35.1866 39.9359 35.789 39.0269 36.1647 38.0182C36.5405 37.0095 36.6796 35.928 36.5714 34.857C36.4632 33.786 36.1106 32.7541 35.5406 31.8409C34.9707 30.9278 34.1987 30.1576 33.2841 29.5899C32.3696 29.0222 31.3369 28.672 30.2656 28.5664ZM30.2656 3.92187C30.2656 3.36243 30.4879 2.82591 30.8835 2.43032C31.279 2.03474 31.8156 1.8125 32.375 1.8125C32.9345 1.8125 33.471 2.03474 33.8665 2.43032C34.2621 2.82591 34.4844 3.36243 34.4844 3.92187V14.4687H30.2656V3.92187ZM23.9375 40.8992L21.6242 38.5789C21.4915 38.4471 21.312 38.3732 21.125 38.3732C20.938 38.3732 20.7585 38.4471 20.6258 38.5789L18.3125 40.8992L15.9992 38.5789C15.8665 38.4471 15.687 38.3732 15.5 38.3732C15.313 38.3732 15.1335 38.4471 15.0008 38.5789L12.6875 40.8992L10.3742 38.5789C10.2415 38.4471 10.062 38.3732 9.875 38.3732C9.68797 38.3732 9.50854 38.4471 9.37579 38.5789L7.0625 40.8992L4.74922 38.5789C4.61647 38.4471 4.43704 38.3732 4.25 38.3732C4.06297 38.3732 3.88354 38.4471 3.75079 38.5789L2.14063 40.1961V3.92187C2.14232 3.36295 2.36507 2.82739 2.76029 2.43216C3.15552 2.03694 3.69109 1.81417 4.25 1.8125H29.5836C29.1162 2.4165 28.8615 3.15811 28.8594 3.92187V28.5664C27.5523 28.6952 26.3075 29.1883 25.2668 29.9897C24.2261 30.791 23.4312 31.8683 22.9725 33.0992C22.5139 34.33 22.41 35.6648 22.6726 36.9517C22.9351 38.2387 23.5537 39.4262 24.4578 40.3789L23.9375 40.8992ZM29.5625 41.1875C28.45 41.1875 27.3624 40.8576 26.4374 40.2395C25.5124 39.6214 24.7915 38.7429 24.3657 37.7151C23.94 36.6873 23.8285 35.5562 24.0456 34.4651C24.2626 33.374 24.7983 32.3717 25.5851 31.585C26.3717 30.7983 27.374 30.2626 28.4651 30.0456C29.5562 29.8285 30.6873 29.94 31.7151 30.3657C32.743 30.7914 33.6214 31.5124 34.2396 32.4374C34.8576 33.3624 35.1875 34.4499 35.1875 35.5625C35.1855 37.0537 34.5922 38.4833 33.5377 39.5377C32.4833 40.5922 31.0537 41.1855 29.5625 41.1875Z" fill="white"/>
<path d="M33.3341 33.1973C33.2022 33.0655 33.0234 32.9915 32.837 32.9915C32.6505 32.9915 32.4717 33.0655 32.3399 33.1973L28.8594 36.6777L27.3674 35.1858C27.2348 35.0577 27.0572 34.9868 26.8728 34.9884C26.6885 34.99 26.512 35.0639 26.3817 35.1943C26.2513 35.3246 26.1774 35.501 26.1758 35.6853C26.1742 35.8697 26.2451 36.0473 26.3732 36.1799L28.3623 38.1691C28.4942 38.3009 28.673 38.3749 28.8594 38.3749C29.0458 38.3749 29.2246 38.3009 29.3565 38.1691L33.3341 34.1915C33.4659 34.0596 33.5399 33.8808 33.5399 33.6944C33.5399 33.508 33.4659 33.3292 33.3341 33.1973Z" fill="white"/>
</svg>
