<svg width="39" height="37" viewBox="0 0 39 37" fill="none" xmlns="http://www.w3.org/2000/svg">
<path d="M12.4688 8.65625V11.4688" stroke="white" stroke-width="2" stroke-miterlimit="10" stroke-linecap="round" stroke-linejoin="round"/>
<path d="M26.5312 8.65625V11.4688" stroke="white" stroke-width="2" stroke-miterlimit="10" stroke-linecap="round" stroke-linejoin="round"/>
<path d="M19.5 7.25V10.0625" stroke="white" stroke-width="2" stroke-miterlimit="10" stroke-linecap="round" stroke-linejoin="round"/>
<path d="M36.0937 15.6875C34.8281 7.67188 27.7969 1.625 19.5 1.625C11.2031 1.625 4.17187 7.67188 2.90625 15.6875H36.0937Z" stroke="white" stroke-width="2" stroke-miterlimit="10" stroke-linecap="round" stroke-linejoin="round"/>
<path d="M2.625 18.5L4.73438 19.9062C6 20.75 7.6875 20.75 8.95312 19.9062C10.2187 19.0625 11.9063 19.0625 13.1719 19.9062C14.4375 20.75 16.125 20.75 17.3906 19.9062C18.6562 19.0625 20.3438 19.0625 21.6094 19.9062C22.875 20.75 24.5625 20.75 25.8281 19.9062C27.0937 19.0625 28.7813 19.0625 30.0469 19.9062C31.3125 20.75 33 20.75 34.2656 19.9062L36.375 18.5" stroke="white" stroke-width="2" stroke-miterlimit="10" stroke-linecap="round" stroke-linejoin="round"/>
<path d="M34.9688 29.75H4.03125C2.48437 29.75 1.21875 28.4844 1.21875 26.9375C1.21875 25.3906 2.48437 24.125 4.03125 24.125H34.9688C36.5156 24.125 37.7812 25.3906 37.7812 26.9375C37.7812 28.4844 36.5156 29.75 34.9688 29.75Z" stroke="white" stroke-width="2" stroke-miterlimit="10" stroke-linecap="round" stroke-linejoin="round"/>
<path d="M34.9688 29.75V31.7187C34.9688 33.8281 33.2812 35.375 31.3125 35.375H7.6875C5.71875 35.375 4.03125 33.6875 4.03125 31.7187V29.75" stroke="white" stroke-width="2" stroke-miterlimit="10" stroke-linecap="round" stroke-linejoin="round"/>
</svg>
