<svg width="37" height="37" viewBox="0 0 37 37" fill="none" xmlns="http://www.w3.org/2000/svg">
<path d="M2.38778 37.0088C2.25683 37.0088 2.12608 36.9587 2.02659 36.8592L0.14954 34.9822C-0.0431091 34.7896 -0.0504637 34.4799 0.132379 34.278L2.85602 31.2751L1.01717 29.4363C0.534224 28.9533 0.534224 28.1676 1.01717 27.6847L2.52976 26.1721C2.58186 26.12 2.63743 26.0732 2.69647 26.0318L1.79819 25.1335C1.31544 24.6505 1.31544 23.865 1.79798 23.3821L3.97575 21.2045C4.20987 20.9704 4.52081 20.8417 4.85156 20.8417C5.18231 20.8417 5.49345 20.9706 5.72737 21.2045L9.30986 24.787L24.7781 9.3188L21.1957 5.73633C20.9615 5.50241 20.8328 5.19148 20.8328 4.86052C20.8328 4.52957 20.9617 4.21864 21.1957 3.98472L23.3732 1.80717C23.6073 1.57305 23.9183 1.44435 24.249 1.44435C24.5796 1.44435 24.8907 1.57305 25.1246 1.80697L26.0231 2.70565C26.0642 2.64681 26.111 2.59084 26.1633 2.53854L27.6758 1.02596C27.91 0.791838 28.2209 0.663134 28.5516 0.663134C28.8824 0.663134 29.1937 0.792043 29.4275 1.02616L31.2663 2.86479L34.2692 0.141167C34.4711 -0.0416743 34.7812 -0.0343198 34.9734 0.158328L36.8505 2.03537C37.0431 2.22801 37.0505 2.53772 36.8676 2.73956L34.144 5.74246L35.9828 7.58129C36.4658 8.06424 36.4658 8.84995 35.9828 9.33289L34.4702 10.8455C34.4181 10.8976 34.3626 10.9444 34.3035 10.9858L35.2018 11.8841C35.6846 12.367 35.6846 13.1525 35.202 13.6355L33.0242 15.813C32.7901 16.0472 32.4792 16.1759 32.1484 16.1759C31.8177 16.1759 31.5065 16.047 31.2726 15.813L27.6901 12.2306L12.2219 27.6988L15.8043 31.2812C16.0385 31.5152 16.1672 31.8261 16.1672 32.157C16.1672 32.488 16.0383 32.7989 15.8043 33.0328L13.6268 35.2104C13.3927 35.4445 13.0817 35.5732 12.751 35.5732C12.4204 35.5732 12.1093 35.4445 11.8754 35.2106L10.9769 34.3119C10.9358 34.3708 10.889 34.4267 10.8367 34.479L9.32416 35.9916C9.09004 36.2257 8.7791 36.3544 8.44835 36.3544C8.1176 36.3544 7.80626 36.2255 7.57254 35.9914L5.7337 34.1528L2.73079 36.8764C2.63354 36.9649 2.51056 37.0088 2.38778 37.0088ZM1.21575 34.6037L2.40494 35.7928L5.0107 33.4296L3.57901 31.9979L1.21575 34.6037ZM3.40577 26.8303C3.37227 26.8303 3.30771 26.8385 3.25215 26.8939L1.73956 28.4064C1.65498 28.4912 1.65498 28.6289 1.73956 28.7135L8.29533 35.269C8.3507 35.3244 8.41525 35.3328 8.44876 35.3328C8.48226 35.3328 8.54682 35.3244 8.60239 35.269L10.115 33.7562C10.1989 33.6721 10.1996 33.535 10.1162 33.4504L3.5592 26.8935C3.50363 26.8385 3.43928 26.8303 3.40577 26.8303ZM8.60137 30.4917L12.598 34.4882C12.6533 34.5436 12.7179 34.5518 12.7514 34.5518C12.7851 34.5518 12.8496 34.5434 12.905 34.488L15.0826 32.3105C15.1379 32.2551 15.1463 32.1906 15.1463 32.157C15.1463 32.1235 15.1379 32.059 15.0826 32.0036L5.00519 21.9263C4.94982 21.8709 4.88527 21.8628 4.85176 21.8628C4.81806 21.8628 4.7535 21.8711 4.69813 21.9265L2.52057 24.104C2.43599 24.1886 2.43599 24.3263 2.52077 24.4111L8.60137 30.4917ZM10.0322 25.5088L11.5001 26.9766L26.9684 11.5084L25.5005 10.0406L10.0322 25.5088ZM24.2492 2.4654C24.2155 2.4654 24.151 2.47378 24.0956 2.52914L21.918 4.70669C21.8627 4.76206 21.8543 4.82661 21.8543 4.86012C21.8543 4.89362 21.8627 4.95818 21.918 5.01354L31.9954 15.0909C32.0508 15.1462 32.1153 15.1544 32.1488 15.1544C32.1826 15.1544 32.2471 15.146 32.3025 15.0907L34.48 12.9131C34.5646 12.8285 34.5646 12.6908 34.4798 12.6061L24.4027 2.52873C24.3475 2.47378 24.2827 2.4654 24.2492 2.4654ZM29.1214 5.80313L33.4414 10.1231C33.4968 10.1785 33.5613 10.1868 33.5948 10.1868C33.6283 10.1868 33.6929 10.1785 33.7485 10.1231L35.2611 8.61052C35.3456 8.52573 35.3456 8.38804 35.2611 8.30346L28.7053 1.74793C28.6499 1.69256 28.5854 1.68419 28.5519 1.68419C28.5183 1.68419 28.4538 1.69256 28.3982 1.74793L26.8856 3.26071C26.8017 3.34488 26.8011 3.48196 26.8844 3.56654L29.1214 5.80313ZM31.9899 3.58758L33.4216 5.01926L35.7849 2.41351L34.5957 1.22433L31.9899 3.58758Z" fill="white"/>
</svg>
