<svg width="49" height="49" viewBox="0 0 49 49" fill="none" xmlns="http://www.w3.org/2000/svg">
<path d="M9.19166 11.127C8.27994 11.6564 7.65597 12.6466 7.65597 13.7812C7.65597 15.4785 9.03763 16.8452 10.7199 16.8452H11.4197C11.9558 17.9277 12.7495 18.8382 13.7793 19.5249V20.6749C13.7503 20.6749 13.7237 20.672 13.6956 20.6749C13.6135 20.6836 13.5327 20.707 13.4578 20.7423L9.1767 22.7461C8.29768 23.171 7.42503 23.5601 6.68104 24.1442C5.88935 24.7658 5.3381 25.5611 5.15881 26.6759L3.86686 35.5359C3.67501 36.7608 4.21575 37.8562 5.04816 38.6074C5.88189 39.3598 7.01991 39.8128 8.21373 39.8126C13.3873 39.8148 18.5606 39.8111 23.7321 39.8111C23.7816 39.8111 23.8177 39.8132 23.8666 39.8082C24.6319 44.1235 28.5875 47.469 34.4535 47.469C41.0168 47.469 45.1718 43.286 45.1718 38.2515C45.1718 35.8625 44.081 33.9074 42.8691 32.1938C42.8696 32.1736 42.8749 32.1736 42.8749 32.1536C42.8749 31.5605 42.6558 31.0291 42.2887 30.6239C42.6554 30.217 42.8749 29.6839 42.8749 29.0911C42.8749 28.2708 42.4308 27.5463 41.8162 27.1561C42.0072 26.8214 42.1107 26.4396 42.1107 26.0256C42.1107 24.7494 41.0702 23.7317 39.811 23.7317H39.15C39.5515 22.5714 40.4658 21.3151 40.5691 19.7107C40.5778 19.6028 40.5749 19.5192 40.5749 19.4251C40.5749 18.3479 40.0435 17.5748 39.253 17.1701C38.5992 16.8354 37.8066 16.7764 37.2252 16.9322C36.0829 17.212 35.4586 17.9546 34.4529 18.779C34.3004 18.6549 34.1269 18.5067 33.9788 18.3768C33.3248 17.8029 32.6724 17.1673 31.6686 16.9382C31.0658 16.7788 30.2923 16.8387 29.6454 17.17C28.8584 17.5729 28.3281 18.3478 28.3281 19.425C28.3281 20.8911 29.0128 22.0409 29.4854 23.0752C28.9787 23.223 28.4995 23.5456 28.2069 23.9081C27.5396 23.4488 26.8012 23.1114 26.0433 22.7462L21.7592 20.7424C21.6564 20.6947 21.5479 20.6724 21.4392 20.6721L21.4407 19.5237C22.445 18.8554 23.2642 17.9296 23.8003 16.8455H24.4986C26.1807 16.8455 27.5625 15.4788 27.5625 13.7815C27.5625 12.6495 26.9411 11.659 26.0328 11.1287V9.95339C26.0328 5.3009 22.2905 1.53151 17.6112 1.53137C12.9319 1.53125 9.19105 5.30064 9.19136 9.95313L9.19166 11.127ZM34.4535 1.53125C34.0706 1.53125 33.6879 1.78619 33.6879 2.29687V3.06251C33.6879 4.08358 35.2191 4.08358 35.2191 3.06251V2.29687C35.2191 1.78633 34.8364 1.53125 34.4535 1.53125ZM31.3911 3.82812C31.0082 3.82812 30.6255 4.08335 30.6255 4.59374V5.35938C30.6255 6.38046 32.1567 6.38046 32.1567 5.35938V4.59374C32.1567 4.0832 31.774 3.82812 31.3911 3.82812ZM37.5159 3.82812C37.133 3.82812 36.7503 4.08335 36.7503 4.59374V5.35938C36.7503 6.38046 38.2815 6.38046 38.2815 5.35938V4.59374C38.2815 4.0832 37.8988 3.82812 37.5159 3.82812ZM34.4535 6.88914C31.9045 6.88914 29.8584 8.95643 29.8584 11.4844C29.8584 14.0123 31.9129 16.0796 34.4535 16.0796C36.994 16.0796 39.0486 14.0123 39.0486 11.4844C39.0486 8.95643 37.0025 6.88914 34.4535 6.88914ZM14.9531 10.2014C15.7657 10.5093 16.5733 10.7217 17.6117 10.7217C18.4495 10.7217 19.4056 10.5571 20.2644 10.2028C20.8275 11.2174 21.8227 11.9274 22.9695 12.1722V13.8306C22.9695 16.7822 20.568 19.1421 17.6117 19.1421C14.626 19.1421 12.2481 16.7463 12.2481 13.8306V12.1722C13.3792 11.9425 14.4287 11.1879 14.9531 10.2014ZM10.7199 12.25L10.7228 13.8306C10.7228 14.341 10.7746 14.8351 10.8814 15.314H10.7199C9.86514 15.314 9.18868 14.618 9.18868 13.7812C9.18868 12.9444 9.86514 12.25 10.7199 12.25ZM24.5007 12.25C25.3547 12.2509 26.0319 12.9449 26.0319 13.7812C26.0319 14.618 25.3539 15.3125 24.4992 15.3125H24.3377C24.4436 14.8346 24.5006 14.3402 24.5006 13.8306L24.5007 12.25ZM40.5754 34.4546C41.1705 34.4546 41.7244 34.2237 42.135 33.8475C43.0167 35.2187 43.6408 36.6272 43.6408 38.2513C43.6408 42.4382 40.1506 45.9375 34.4536 45.9375C28.9386 45.9375 25.5019 42.6717 25.2783 38.6924C25.2812 38.6867 25.2957 38.6479 25.2986 38.6415C25.5541 38.0665 25.6485 37.4077 25.6485 36.7484C25.6485 36.5007 25.6283 36.255 25.5993 36.0127C26.4212 33.0544 29.2372 30.7981 30.5563 28.3265H31.7764C33.2477 28.3265 34.4545 27.1361 34.4545 25.6468C34.4545 24.1576 33.2477 22.9686 31.7764 22.9686H31.1066C30.7117 21.926 29.861 20.6574 29.861 19.4246C29.861 18.8459 30.1636 18.6258 30.3469 18.5319C30.5327 18.4367 30.7422 18.395 30.8927 18.3855C31.0611 18.3739 31.2064 18.3941 31.2994 18.4185C31.8684 18.5446 32.3063 18.9421 32.9861 19.5385C33.6658 20.1348 34.539 20.8713 35.8541 21.3075C36.8965 21.5882 37.7362 21.6734 38.4305 21.5841C38.1394 22.1922 37.7264 22.9702 37.5363 23.8047C37.5305 23.825 37.5248 23.8397 37.5219 23.8615C36.6312 24.1743 35.9862 25.0192 35.9862 26.0252C35.9862 26.6188 36.2032 27.1524 36.5708 27.5595C36.2179 27.9529 35.9862 28.4968 35.9862 29.0907C35.9862 29.6835 36.2058 30.2166 36.5723 30.6235C36.2053 31.0287 35.9862 31.5601 35.9862 32.1562L35.2176 32.1591V31.389C35.2205 30.9597 34.8723 30.6109 34.443 30.6159C34.0231 30.6246 33.6882 30.969 33.6924 31.389V32.1591H32.9238C31.6307 32.1591 30.6285 33.1938 30.6285 34.453V35.9842C30.6285 37.2704 31.6646 38.2796 32.9238 38.2796H33.6924V41.3421H32.9238C32.5013 41.3421 32.1612 41.0169 32.1612 40.5795C32.1612 39.5577 30.6285 39.5577 30.6285 40.5795C30.6285 41.8716 31.6646 42.8734 32.9238 42.8734H33.6924V43.6435C33.6924 44.6565 35.2176 44.672 35.2176 43.6435V42.8735H35.9862C37.2749 42.8735 38.2815 41.8388 38.2815 40.5796V39.0483C38.2815 37.7891 37.2603 36.747 35.9862 36.747H35.2177V33.6905H35.9863C36.4236 33.6905 36.7489 34.0369 36.7489 34.4531C36.7479 35.4749 38.2806 35.4764 38.2839 34.4546H40.5754ZM15.312 20.2844C16.0325 20.5384 16.8041 20.6762 17.6117 20.6762C18.4193 20.6762 19.1863 20.5387 19.9056 20.2859V21.8859L18.0589 23.7327H17.1602L15.312 21.8859V20.2844ZM13.6223 22.3599L15.7606 24.5043L14.6107 25.6542L12.4275 22.9192L13.6223 22.3599ZM21.6013 22.3599L22.796 22.9192L20.6069 25.6542L19.4585 24.5028L21.6013 22.3599ZM24.2226 23.5861L25.3889 24.1319C26.2829 24.5627 27.047 24.9218 27.581 25.3417C27.5694 25.4386 27.5636 25.5483 27.5636 25.6482C27.5636 26.674 28.1336 27.557 28.9707 28.0079C27.8212 29.9007 25.9257 31.5721 24.7196 34.0551C24.4641 33.8384 24.1211 33.6858 23.7326 33.6858H22.9715C22.9686 32.8354 22.8159 32.1197 22.4781 31.5713C22.1276 31.0025 21.5701 30.6263 20.8617 30.6263C20.3926 30.6263 20.0158 30.7967 19.7207 31.033L19.1884 27.8434L19.9196 27.1241L20.1335 27.3394C20.4556 27.6589 20.9834 27.6297 21.2684 27.2766L24.2226 23.5861ZM10.9965 23.5877L13.9497 27.2767C14.2351 27.6342 14.7679 27.6635 15.0907 27.3395L15.3196 27.1092L16.0283 27.818L15.0444 33.6918H12.5592L12.7236 33.2222C13.0589 32.2577 11.6114 31.7552 11.2761 32.7198L10.7617 34.2077C10.5936 34.7034 10.962 35.2188 11.4855 35.2199L16.8432 35.217V38.281C13.9658 38.2801 11.0904 38.2825 8.21371 38.2825C7.41889 38.2825 6.61385 37.9565 6.07695 37.472C5.54003 36.9874 5.28472 36.3869 5.38163 35.7717L6.67057 26.9147C6.78631 26.1861 7.14752 25.7283 7.63054 25.3491C8.16477 24.9296 8.94081 24.5624 9.83163 24.1319L10.9965 23.5877ZM30.2412 24.5013C30.7529 24.51 31.2527 24.5013 31.7754 24.5013C32.4248 24.5013 32.9223 25.0196 32.9223 25.6482C32.9223 26.2768 32.4248 26.7951 31.7754 26.7951H30.2412C29.5917 26.7951 29.0943 26.2768 29.0943 25.6482C29.0943 25.0196 29.6037 24.5013 30.2412 24.5013ZM17.1602 25.2639H18.0589L18.8364 26.043L17.6177 27.2423L16.4006 26.025L17.1602 25.2639ZM38.2845 25.2639H39.8112C40.2486 25.2639 40.5798 25.6102 40.5798 26.0265C40.5798 26.4429 40.2486 26.7951 39.8112 26.7951H38.2845C37.847 26.7951 37.5159 26.4429 37.5159 26.0265C37.5159 25.6102 37.847 25.2639 38.2845 25.2639ZM38.2845 28.3294H40.5753C41.0127 28.3294 41.3439 28.6757 41.3439 29.092C41.3439 29.5083 41.0127 29.8606 40.5753 29.8606H38.2845C37.847 29.8606 37.5159 29.5083 37.5159 29.092C37.5159 28.6757 37.847 28.3294 38.2845 28.3294ZM17.374 29.0457C17.5245 29.0951 17.6863 29.0966 17.8375 29.0514L18.485 32.9349C18.3771 33.1213 18.2677 33.2784 18.1605 33.3925C17.9811 33.5838 17.8067 33.6743 17.5549 33.693H16.6009L17.374 29.0457ZM10.7199 29.0951C9.69794 29.0942 9.69794 30.6255 10.7199 30.6264H13.7823C14.8042 30.6273 14.8042 29.096 13.7823 29.0951H10.7199ZM38.28 31.3935H38.2858H40.5811C41.016 31.3961 41.3451 31.7399 41.3451 32.1546C41.3451 32.571 41.014 32.9233 40.5765 32.9233H38.2857C37.8483 32.9233 37.5171 32.571 37.5171 32.1546C37.5171 31.7399 37.845 31.3961 38.28 31.3935ZM20.8611 32.1606C20.9378 32.1606 21.0405 32.1609 21.1721 32.3745C21.3243 32.6213 21.4447 33.0432 21.4383 33.7502V34.4545C21.4399 34.8775 21.7839 35.2188 22.2069 35.2172L23.7291 35.2201C23.7592 35.2519 23.833 35.3399 23.8967 35.4834C24.024 35.7699 24.1166 36.2607 24.1166 36.75C24.1166 37.2392 24.024 37.7345 23.8967 38.021C23.833 38.1643 23.7624 38.2534 23.7323 38.2826L18.3746 38.2811V35.0616C18.7216 34.9259 19.0207 34.7123 19.2643 34.4529C19.6366 34.0565 19.8749 33.6 20.0703 33.2163C20.2656 32.8325 20.4342 32.5047 20.5727 32.3355C20.7113 32.1662 20.7844 32.1606 20.8611 32.1606ZM32.9223 33.6919H33.6909V36.7484H32.9223C32.4998 36.7484 32.1597 36.4232 32.1597 35.9858V34.4545C32.1597 34.0172 32.5018 33.6919 32.9223 33.6919ZM35.2161 38.2812H35.9847C36.4221 38.2812 36.7473 38.6334 36.7473 39.0498V40.581C36.7473 41.0184 36.4052 41.3436 35.9847 41.3436H35.2161V38.2812Z" fill="white"/>
</svg>
