<svg width="40" height="39" viewBox="0 0 40 39" fill="none" xmlns="http://www.w3.org/2000/svg">
<path d="M13.4688 23.7188L7 3.32812C6.71875 2.0625 5.45313 1.21875 4.1875 1.21875H0.8125" stroke="white" stroke-width="2" stroke-miterlimit="10" stroke-linejoin="round"/>
<path d="M34.5625 29.3438H9.8125C8.26562 29.3438 7 28.0781 7 26.5312C7 24.9844 8.26562 24 9.8125 23.7188L38.7813 19.5V5.4375H13.4687" stroke="white" stroke-width="2" stroke-miterlimit="10" stroke-linejoin="round"/>
<path d="M13.4688 37.7812C14.2454 37.7812 14.875 37.1517 14.875 36.375C14.875 35.5983 14.2454 34.9688 13.4688 34.9688C12.6921 34.9688 12.0625 35.5983 12.0625 36.375C12.0625 37.1517 12.6921 37.7812 13.4688 37.7812Z" stroke="white" stroke-width="2" stroke-miterlimit="10" stroke-linejoin="round"/>
<path d="M31.75 37.7812C32.5267 37.7812 33.1562 37.1517 33.1562 36.375C33.1562 35.5983 32.5267 34.9688 31.75 34.9688C30.9733 34.9688 30.3438 35.5983 30.3438 36.375C30.3438 37.1517 30.9733 37.7812 31.75 37.7812Z" stroke="white" stroke-width="2" stroke-miterlimit="10" stroke-linejoin="round"/>
</svg>
